Coordinates
version=1
nRows=24
nColumns=22
inDegrees=yes

Units are S.I. units (second, meters, Newtons, ...)
If the header above contains a line with 'inDegrees', this indicates whether rotational values are in degrees (yes) or radians (no).

endheader
time	pelvis_tilt	pelvis_list	pelvis_rotation	pelvis_tx	pelvis_ty	pelvis_tz	hip_flexion_r	hip_adduction_r	hip_rotation_r	knee_angle_r	ankle_angle_r	subtalar_angle_r	hip_flexion_l	hip_adduction_l	hip_rotation_l	knee_angle_l	ankle_angle_l	subtalar_angle_l	lumbar_extension	lumbar_bending	lumbar_rotation
      2.71000000	     -6.37386994	      1.19078780	    -35.64249833	     -0.37950833	      0.88282297	      0.01442655	      4.37841462	      5.31927479	      2.32538276	    -10.87164307	     15.76255257	     -3.50046080	     30.32338479	    -10.31843969	     -7.17468052	    -60.06006241	     11.86775783	      5.60749887	     -4.65214258	      1.55258960	     18.15902166
      2.72000000	     -6.20771346	      1.06032665	    -36.06407478	     -0.37088486	      0.88266508	      0.02042992	      2.83274849	      5.28063166	      2.62375314	     -9.81252310	     15.87422207	     -3.37958609	     31.00177635	    -10.37183190	     -7.12031625	    -57.44591711	     12.12527941	      5.14442994	     -4.72985686	      1.56191322	     18.52565012
      2.73000000	     -6.08785484	      0.92685876	    -36.47885452	     -0.36221169	      0.88219178	      0.02635344	      1.36600601	      5.25181628	      2.90152376	     -8.83010540	     15.99422137	     -3.26341340	     31.59162927	    -10.43085767	     -6.96533962	    -54.56977708	     12.24595690	      4.78580863	     -4.77466585	      1.61154770	     18.87874040
      2.74000000	     -6.00139109	      0.78249346	    -36.88924107	     -0.35350399	      0.88142942	      0.03221719	     -0.02200675	      5.23721821	      3.16041878	     -7.96034970	     16.20176813	     -3.14306222	     32.07477880	    -10.50150987	     -6.70996720	    -51.45307545	     12.23325685	      4.50081085	     -4.80635799	      1.69715303	     19.20872298
      2.75000000	     -5.97526233	      0.63077910	    -37.31118524	     -0.34477772	      0.88037076	      0.03806822	     -1.31148436	      5.25378791	      3.41859539	     -7.19043490	     16.40096301	     -3.02781600	     32.48087328	    -10.62017486	     -6.37645578	    -48.13189168	     12.05136331	      4.34262022	     -4.79572544	      1.83060836	     19.55298803
      2.76000000	     -6.01872623	      0.47988074	    -37.74520962	     -0.33601879	      0.87900435	      0.04394130	     -2.49574084	      5.30196644	      3.66436151	     -6.51302354	     16.60437329	     -2.92105282	     32.83386959	    -10.80135993	     -5.99324348	    -44.65881874	     11.70593913	      4.29000880	     -4.72410755	      2.00740521	     19.92715857
      2.77000000	     -6.08639472	      0.28611924	    -38.20224732	     -0.32723334	      0.87743305	      0.04983672	     -3.62500423	      5.38886191	      3.94547974	     -5.96967485	     16.88430417	     -2.79769869	     33.07081604	    -11.05777311	     -5.57089652	    -41.07606499	     11.26842843	      4.32167143	     -4.67272190	      2.23830365	     20.30681291
      2.78000000	     -6.22352670	      0.08393223	    -38.68463037	     -0.31839005	      0.87559582	      0.05575626	     -4.65938233	      5.50992274	      4.24548512	     -5.51950440	     17.15435255	     -2.67135701	     33.27903786	    -11.39759875	     -5.14712982	    -37.46413873	     10.74655898	      4.41482372	     -4.56934262	      2.52701281	     20.73253726
      2.79000000	     -6.41334807	     -0.13770847	    -39.19559339	     -0.30947966	      0.87353863	      0.06170971	     -5.62016629	      5.66189587	      4.57251007	     -5.16898748	     17.44236890	     -2.53670804	     33.45925803	    -11.81949458	     -4.73607150	    -33.90134642	     10.20092532	      4.54315227	     -4.43715664	      2.86870973	     21.20942114
      2.80000000	     -6.61501272	     -0.39309362	    -39.73971769	     -0.30048351	      0.87136286	      0.06766228	     -6.53751293	      5.82369170	      4.95947887	     -4.94873125	     17.75591601	     -2.36641893	     33.57226816	    -12.30035378	     -4.34667215	    -30.44064142	      9.71767377	      4.73859782	     -4.33325262	      3.25656979	     21.69453108
      2.81000000	     -6.84188475	     -0.66117947	    -40.30822893	     -0.29138120	      0.86905181	      0.07359721	     -7.39671773	      5.98415741	      5.36312196	     -4.83736363	     18.09691719	     -2.15974840	     33.67983715	    -12.82141552	     -3.96479577	    -27.18638132	      9.29326159	      4.99545728	     -4.22567307	      3.67925634	     22.22581517
      2.82000000	     -7.08994336	     -0.92083635	    -40.92130970	     -0.28219211	      0.86664605	      0.07950299	     -8.17512109	      6.11774757	      5.84940724	     -4.85052047	     18.42084405	     -1.95744553	     33.79650237	    -13.36795132	     -3.60519074	    -24.20210286	      8.97635325	      5.22518503	     -4.10939374	      4.12099839	     22.79888616
      2.83000000	     -7.32020547	     -1.18169493	    -41.55755296	     -0.27289500	      0.86422780	      0.08536057	     -8.90617301	      6.20836727	      6.36306186	     -4.99760759	     18.77238664	     -1.72747330	     33.89944871	    -13.90746895	     -3.23517603	    -21.55556369	      8.75680611	      5.48754809	     -4.02639479	      4.55838147	     23.41180906
      2.84000000	     -7.51989663	     -1.42942724	    -42.20671948	     -0.26349401	      0.86184175	      0.09115539	     -9.57652879	      6.23898111	      6.92902321	     -5.30078758	     19.13949639	     -1.46311428	     33.98706973	    -14.41445661	     -2.85805330	    -19.28319997	      8.64127535	      5.77046922	     -3.98005269	      4.96899742	     23.99893019
      2.85000000	     -7.67942318	     -1.65688542	    -42.86136797	     -0.25396993	      0.85952551	      0.09691153	    -10.19700463	      6.19985072	      7.52608898	     -5.74095302	     19.50821851	     -1.17097058	     34.06722502	    -14.87543239	     -2.49399172	    -17.44261276	      8.60110746	      6.03281203	     -3.96479667	      5.33397677	     24.59032492
      2.86000000	     -7.79983856	     -1.85913234	    -43.53388606	     -0.24435358	      0.85731424	      0.10265862	    -10.76011871	      6.09122975	      8.16507002	     -6.31686317	     19.84937828	     -0.91048574	     34.14438076	    -15.29382450	     -2.19036071	    -16.06750249	      8.63085433	      6.19137097	     -3.97975001	      5.64417016	     25.20259919
      2.87000000	     -7.85302619	     -2.02770062	    -44.18869469	     -0.23457218	      0.85526074	      0.10839977	    -11.29330357	      5.89218787	      8.83942904	     -7.01069304	     20.15634442	     -0.61318675	     34.19642556	    -15.62331993	     -1.97499346	    -15.15798528	      8.70016156	      6.31371439	     -4.02950249	      5.86948048	     25.75464430
      2.88000000	     -7.84706043	     -2.15641177	    -44.82326982	     -0.22459945	      0.85337930	      0.11415082	    -11.79481416	      5.60582797	      9.52137179	     -7.79940905	     20.40490821	     -0.29071723	     34.23108585	    -15.85826221	     -1.86796493	    -14.71307691	      8.78632024	      6.37094057	     -4.09567891	      6.00971959	     26.25966508
      2.89000000	     -7.76647383	     -2.23933285	    -45.41660568	     -0.21437409	      0.85170218	      0.11991325	    -12.28096892	      5.21924635	     10.16541475	     -8.66427076	     20.58013237	      0.19066729	     34.23017024	    -15.96663126	     -1.83951578	    -14.70297932	      8.84353912	      6.36064337	     -4.17630664	      6.04503118	     26.70139605
      2.90000000	     -7.66955091	     -2.25427820	    -45.98557386	     -0.20393055	      0.85016322	      0.12573691	    -12.68843336	      4.77030316	     10.84088647	     -9.60873019	     20.63173480	      0.46989555	     34.25693845	    -15.98530165	     -1.90825918	    -15.10732528	      8.87546026	      6.28088913	     -4.20105946	      6.00296820	     27.06554909
      2.91000000	     -7.51511080	     -2.20577437	    -46.49666310	     -0.19316108	      0.84882623	      0.13156041	    -13.05840273	      4.22670838	     11.43035699	    -10.61255573	     20.57400859	      0.99472645	     34.25085963	    -15.86348592	     -2.00302432	    -15.83459427	      8.78897872	      6.11948640	     -4.19913526	      5.86114523	     27.34850449
      2.92000000	     -7.36070486	     -2.08489248	    -46.96360159	     -0.18212211	      0.84762190	      0.13742304	    -13.33154545	      3.64092231	     12.01244643	    -11.69216758	     20.38452682	      1.47298014	     34.26949338	    -15.64752325	     -2.09941013	    -16.84341991	      8.58755798	      5.97463263	     -4.11587989	      5.65610115	     27.53195580
      2.93000000	     -7.20371711	     -1.89188208	    -47.40296883	     -0.17082338	      0.84657077	      0.14334396	    -13.50855027	      3.01416243	     12.59601305	    -12.84390755	     20.03157034	      1.78816144	     34.30253169	    -15.35082097	     -2.21878449	    -18.07260280	      8.23932058	      5.90283428	     -3.95386570	      5.38569337	     27.65041259
      2.94000000	     -7.05629408	     -1.65583287	    -47.76115403	     -0.15920689	      0.84564820	      0.14921127	    -13.57822511	      2.38321915	     13.05462271	    -14.10523771	     19.55091455	      2.53912656	     34.38384846	    -14.96936038	     -2.28222709	    -19.49884235	      7.72921832	      5.78753074	     -3.72890893	      5.09183817	     27.63747612
